<svg id="visual" viewBox="0 0 3840 2160" width="3840" height="2160" xmlns="http://www.w3.org/2000/svg" xmlns:xlink="http://www.w3.org/1999/xlink" version="1.1"><rect x="0" y="0" width="3840" height="2160" fill="#3f99de"></rect><path d="M0 1398L71.2 1411.7C142.3 1425.3 284.7 1452.7 426.8 1442.2C569 1431.7 711 1383.3 853.2 1342.8C995.3 1302.3 1137.7 1269.7 1280 1295.2C1422.3 1320.7 1564.7 1404.3 1706.8 1422C1849 1439.7 1991 1391.3 2133.2 1357.8C2275.3 1324.3 2417.7 1305.7 2560 1322.8C2702.3 1340 2844.7 1393 2986.8 1418.5C3129 1444 3271 1442 3413.2 1442.2C3555.3 1442.3 3697.7 1444.7 3768.8 1445.8L3840 1447L3840 2161L3768.8 2161C3697.7 2161 3555.3 2161 3413.2 2161C3271 2161 3129 2161 2986.8 2161C2844.7 2161 2702.3 2161 2560 2161C2417.7 2161 2275.3 2161 2133.2 2161C1991 2161 1849 2161 1706.8 2161C1564.7 2161 1422.3 2161 1280 2161C1137.7 2161 995.3 2161 853.2 2161C711 2161 569 2161 426.8 2161C284.7 2161 142.3 2161 71.2 2161L0 2161Z" fill="#3159f1"></path><path d="M0 1560L71.2 1559.8C142.3 1559.7 284.7 1559.3 426.8 1560.7C569 1562 711 1565 853.2 1562.3C995.3 1559.7 1137.7 1551.3 1280 1525.3C1422.3 1499.3 1564.7 1455.7 1706.8 1450.3C1849 1445 1991 1478 2133.2 1495.5C2275.3 1513 2417.7 1515 2560 1534.3C2702.3 1553.7 2844.7 1590.3 2986.8 1570.5C3129 1550.7 3271 1474.3 3413.2 1474C3555.3 1473.7 3697.7 1549.3 3768.8 1587.2L3840 1625L3840 2161L3768.8 2161C3697.7 2161 3555.3 2161 3413.2 2161C3271 2161 3129 2161 2986.8 2161C2844.7 2161 2702.3 2161 2560 2161C2417.7 2161 2275.3 2161 2133.2 2161C1991 2161 1849 2161 1706.8 2161C1564.7 2161 1422.3 2161 1280 2161C1137.7 2161 995.3 2161 853.2 2161C711 2161 569 2161 426.8 2161C284.7 2161 142.3 2161 71.2 2161L0 2161Z" fill="#306bf0"></path><path d="M0 1651L71.2 1644.2C142.3 1637.3 284.7 1623.7 426.8 1631C569 1638.3 711 1666.7 853.2 1686C995.3 1705.3 1137.7 1715.7 1280 1707.3C1422.3 1699 1564.7 1672 1706.8 1677.2C1849 1682.3 1991 1719.7 2133.2 1712.2C2275.3 1704.7 2417.7 1652.3 2560 1619.7C2702.3 1587 2844.7 1574 2986.8 1604.8C3129 1635.7 3271 1710.3 3413.2 1717.3C3555.3 1724.3 3697.7 1663.7 3768.8 1633.3L3840 1603L3840 2161L3768.8 2161C3697.7 2161 3555.3 2161 3413.2 2161C3271 2161 3129 2161 2986.8 2161C2844.7 2161 2702.3 2161 2560 2161C2417.7 2161 2275.3 2161 2133.2 2161C1991 2161 1849 2161 1706.8 2161C1564.7 2161 1422.3 2161 1280 2161C1137.7 2161 995.3 2161 853.2 2161C711 2161 569 2161 426.8 2161C284.7 2161 142.3 2161 71.2 2161L0 2161Z" fill="#3c7aec"></path><path d="M0 1821L71.2 1824.5C142.3 1828 284.7 1835 426.8 1830.3C569 1825.7 711 1809.3 853.2 1816C995.3 1822.7 1137.7 1852.3 1280 1869.2C1422.3 1886 1564.7 1890 1706.8 1885.8C1849 1881.7 1991 1869.3 2133.2 1843.3C2275.3 1817.3 2417.7 1777.7 2560 1758.5C2702.3 1739.3 2844.7 1740.7 2986.8 1759.8C3129 1779 3271 1816 3413.2 1846C3555.3 1876 3697.7 1899 3768.8 1910.5L3840 1922L3840 2161L3768.8 2161C3697.7 2161 3555.3 2161 3413.2 2161C3271 2161 3129 2161 2986.8 2161C2844.7 2161 2702.3 2161 2560 2161C2417.7 2161 2275.3 2161 2133.2 2161C1991 2161 1849 2161 1706.8 2161C1564.7 2161 1422.3 2161 1280 2161C1137.7 2161 995.3 2161 853.2 2161C711 2161 569 2161 426.8 2161C284.7 2161 142.3 2161 71.2 2161L0 2161Z" fill="#4f88e6"></path><path d="M0 2011L71.2 2003.3C142.3 1995.7 284.7 1980.3 426.8 1986.7C569 1993 711 2021 853.2 2012.8C995.3 2004.7 1137.7 1960.3 1280 1946C1422.3 1931.7 1564.7 1947.3 1706.8 1969C1849 1990.7 1991 2018.3 2133.2 2030.3C2275.3 2042.3 2417.7 2038.7 2560 2034.7C2702.3 2030.7 2844.7 2026.3 2986.8 2029.7C3129 2033 3271 2044 3413.2 2044.7C3555.3 2045.3 3697.7 2035.7 3768.8 2030.8L3840 2026L3840 2161L3768.8 2161C3697.7 2161 3555.3 2161 3413.2 2161C3271 2161 3129 2161 2986.8 2161C2844.7 2161 2702.3 2161 2560 2161C2417.7 2161 2275.3 2161 2133.2 2161C1991 2161 1849 2161 1706.8 2161C1564.7 2161 1422.3 2161 1280 2161C1137.7 2161 995.3 2161 853.2 2161C711 2161 569 2161 426.8 2161C284.7 2161 142.3 2161 71.2 2161L0 2161Z" fill="#6595de"></path></svg>